HIERARCHY
ROOT Hips
{
	OFFSET -0.001795 -0.223333 0.028219
	CHANNELS 6 Xposition Yposition Zposition Zrotation Yrotation Xrotation 
	JOINT LeftUpLeg
	{
		OFFSET 0.069520 -0.091406 -0.006815
		CHANNELS 3 Zrotation Yrotation Xrotation
		JOINT LeftLeg
		{
			OFFSET 0.034277 -0.375199 -0.004496
			CHANNELS 3 Zrotation Yrotation Xrotation
			JOINT LeftFoot
			{
				OFFSET -0.013596 -0.397961 -0.043693
				CHANNELS 3 Zrotation Yrotation Xrotation
				JOINT LeftToe
				{
					OFFSET 0.026358 -0.055791 0.119288
					CHANNELS 3 Zrotation Yrotation Xrotation
					End Site
					{
						OFFSET 0.000000 0.000000 0.000000
					}
				}
			}
		}
	}
	JOINT RightUpLeg
	{
		OFFSET -0.067670 -0.090522 -0.004320
		CHANNELS 3 Zrotation Yrotation Xrotation
		JOINT RightLeg
		{
			OFFSET -0.038290 -0.382569 -0.008850
			CHANNELS 3 Zrotation Yrotation Xrotation
			JOINT RightFoot
			{
				OFFSET 0.015774 -0.398415 -0.042312
				CHANNELS 3 Zrotation Yrotation Xrotation
				JOINT RightToe
				{
					OFFSET -0.025372 -0.048144 0.123348
					CHANNELS 3 Zrotation Yrotation Xrotation
					End Site
					{
						OFFSET 0.000000 0.000000 0.000000
					}
				}
			}
		}
	}
	JOINT Spine
	{
		OFFSET -0.002533 0.108963 -0.026696
		CHANNELS 3 Zrotation Yrotation Xrotation
		JOINT Spine1
		{
			OFFSET 0.005487 0.135180 0.001092
			CHANNELS 3 Zrotation Yrotation Xrotation
			JOINT Spine2
			{
				OFFSET 0.001457 0.052922 0.025425
				CHANNELS 3 Zrotation Yrotation Xrotation
				JOINT Neck
				{
					OFFSET -0.002778 0.213870 -0.042857
					CHANNELS 3 Zrotation Yrotation Xrotation
					JOINT Head
					{
						OFFSET 0.005152 0.064970 0.051349
						CHANNELS 3 Zrotation Yrotation Xrotation
						End Site
						{
							OFFSET 0.000000 0.000000 0.000000
						}
					}
				}
				JOINT LeftShoulder
				{
					OFFSET 0.078845 0.121749 -0.034090
					CHANNELS 3 Zrotation Yrotation Xrotation
					JOINT LeftArm
					{
						OFFSET 0.090977 0.030469 -0.008868
						CHANNELS 3 Zrotation Yrotation Xrotation
						JOINT LeftForeArm
						{
							OFFSET 0.259612 -0.012772 -0.027456
							CHANNELS 3 Zrotation Yrotation Xrotation
							JOINT LeftHand
							{
								OFFSET 0.249234 0.008986 -0.001171
								CHANNELS 3 Zrotation Yrotation Xrotation
								End Site
								{
									OFFSET 0.000000 0.000000 0.000000
								}
							}
						}
					}
				}
				JOINT RightShoulder
				{
					OFFSET -0.081759 0.118833 -0.038615
					CHANNELS 3 Zrotation Yrotation Xrotation
					JOINT RightArm
					{
						OFFSET -0.096012 0.032551 -0.009143
						CHANNELS 3 Zrotation Yrotation Xrotation
						JOINT RightForeArm
						{
							OFFSET -0.253742 -0.013329 -0.021401
							CHANNELS 3 Zrotation Yrotation Xrotation
							JOINT RightHand
							{
								OFFSET -0.255298 0.007772 -0.005559
								CHANNELS 3 Zrotation Yrotation Xrotation
								End Site
								{
									OFFSET 0.000000 0.000000 0.000000
								}
							}
						}
					}
				}
			}
		}
	}
}
MOTION
Frames: 15
Frame Time: 0.050000
0.000000 0.956405 0.000000 -3.251623 -3.953051 0.661655 -0.992109 -0.124654 -1.303501 -0.070351 -0.214865 7.841862 2.276598 7.609567 10.592260 0.000000 0.000000 0.000000 4.415077 0.733398 -6.195259 -0.875645 1.232622 19.604943 3.919358 3.343175 9.695820 0.000000 0.000000 0.000000 4.937748 -0.481313 5.182874 -1.930830 0.894886 -5.014715 -1.658734 4.112306 4.698077 8.663922 -5.230967 -9.006241 0.000000 0.000000 0.000000 -21.791236 3.718849 -4.852171 -50.363922 2.481653 -6.882600 -0.996024 -20.264687 0.868555 0.000000 0.000000 0.000000 25.496212 -10.743963 -8.340109 55.702970 -4.300809 -7.507144 -2.922484 23.020894 0.387769 0.000000 0.000000 0.000000 
0.001050 0.956686 -0.000366 -3.804650 -3.807183 0.840079 0.198131 -0.136390 -1.490150 -0.932508 -0.061570 8.162983 1.732917 6.508784 9.758314 0.000000 0.000000 0.000000 4.829292 0.894888 -7.221499 -0.498550 1.214501 21.071046 3.862956 2.933193 10.266885 0.000000 0.000000 0.000000 5.336476 -0.445764 4.481996 -1.343075 0.643688 -3.494410 -2.439846 4.457528 3.908100 8.930790 -5.047099 -10.478468 0.000000 0.000000 0.000000 -21.544597 4.639102 -5.509112 -51.467339 2.347376 -6.903492 0.884591 -21.254104 0.523038 0.000000 0.000000 0.000000 25.028438 -12.318908 -9.050656 57.397563 -5.469895 -8.207684 -4.624088 25.292086 0.125762 0.000000 0.000000 0.000000 
0.001836 0.955862 -0.000413 -3.261927 -3.847847 0.776864 -0.436757 -0.127199 -1.354786 -0.379350 -0.171658 8.424841 0.737954 4.511861 8.797536 0.000000 0.000000 0.000000 4.918710 0.840188 -6.832159 -1.294477 1.418778 20.634565 2.991525 1.690443 9.225264 0.000000 0.000000 0.000000 5.169879 -0.383194 3.860209 -1.658359 0.781951 -3.928945 -2.189909 4.138586 4.625438 8.015333 -4.638296 -9.607032 0.000000 0.000000 0.000000 -21.116221 4.245413 -5.071800 -52.574495 2.135268 -7.086496 1.274205 -20.164474 0.460796 0.000000 0.000000 0.000000 24.293579 -11.647378 -8.587949 57.520730 -5.878052 -8.470925 -4.895401 24.171475 0.051035 0.000000 0.000000 0.000000 
0.002366 0.956771 -0.000394 -3.545175 -4.757297 0.828304 -0.580286 -0.115570 -1.215615 -0.310715 -0.177663 8.652795 1.767333 6.089770 8.180169 0.000000 0.000000 0.000000 5.017264 0.765107 -6.345747 -1.307913 1.411198 19.888991 3.410656 2.632150 8.912801 0.000000 0.000000 0.000000 5.146130 -0.307634 3.001988 -1.339092 0.635833 -1.779961 -2.274391 5.169230 3.602636 7.873319 -4.349644 -10.174033 0.000000 0.000000 0.000000 -20.988430 5.614728 -5.981557 -53.404682 2.226015 -7.138965 2.039367 -21.136769 0.293005 0.000000 0.000000 0.000000 24.287535 -12.486618 -8.949599 57.516933 -5.676328 -8.276067 -5.339515 24.450871 -0.009962 0.000000 0.000000 0.000000 
0.002731 0.956949 -0.000452 -3.287734 -4.731448 0.540048 -0.754786 -0.092638 -0.973055 -0.213434 -0.199296 8.744924 1.222109 5.157033 8.315230 0.000000 0.000000 0.000000 4.768395 0.593724 -5.196157 -1.515997 1.354297 18.423356 3.433537 2.885709 8.551247 0.000000 0.000000 0.000000 4.742028 -0.292371 3.031235 -0.995310 0.477247 -1.601572 -2.250578 5.610515 3.743977 7.788902 -4.314337 -9.919238 0.000000 0.000000 0.000000 -21.302028 5.543016 -6.119086 -53.701371 1.990018 -7.077085 2.524151 -20.807884 0.181642 0.000000 0.000000 0.000000 23.617641 -11.984077 -8.383776 57.703259 -5.275365 -8.135068 -5.957892 23.695733 -0.094661 0.000000 0.000000 0.000000 
0.002882 0.957426 -0.000552 -3.343112 -4.888660 0.342594 -0.723962 -0.068190 -0.723218 -0.366458 -0.172386 9.006010 1.459827 5.431910 7.785695 0.000000 0.000000 0.000000 4.727461 0.471499 -4.344584 -1.642590 1.335017 17.670173 3.677313 3.813702 7.844825 0.000000 0.000000 0.000000 4.743487 -0.284854 2.977758 -1.061679 0.507477 -1.264451 -2.125137 5.802849 3.769053 7.538819 -4.126756 -9.960176 0.000000 0.000000 0.000000 -21.551995 6.213497 -6.564283 -54.053193 1.972414 -7.123725 2.045544 -20.987396 0.264524 0.000000 0.000000 0.000000 23.318963 -11.901134 -8.249149 57.497408 -4.814775 -7.887048 -5.939396 23.191844 -0.083715 0.000000 0.000000 0.000000 
0.002948 0.957494 -0.000720 -3.283608 -5.049469 0.064778 -0.797120 -0.020878 -0.245328 -0.400713 -0.157397 8.685374 1.521624 5.551070 7.857973 0.000000 0.000000 0.000000 4.521829 0.404502 -3.874181 -1.682193 1.304116 17.072050 4.125219 4.438771 8.356547 0.000000 0.000000 0.000000 4.546213 -0.301728 3.319805 -0.940843 0.450359 -1.143597 -2.235243 5.743925 3.553382 7.680813 -4.244493 -9.866913 0.000000 0.000000 0.000000 -22.012868 6.123530 -6.599788 -53.917353 2.578977 -7.343343 1.818779 -21.373605 0.312746 0.000000 0.000000 0.000000 23.205251 -11.409045 -7.965667 57.461196 -4.522474 -7.727747 -5.932395 23.875314 -0.096700 0.000000 0.000000 0.000000 
0.003035 0.957557 -0.000905 -3.275926 -4.802469 -0.032717 -0.669701 -0.030079 -0.336890 -0.394922 -0.170873 9.125187 1.105688 4.741156 7.556292 0.000000 0.000000 0.000000 4.447458 0.410498 -3.900461 -1.680334 1.303200 17.177194 4.323679 4.690626 8.680564 0.000000 0.000000 0.000000 4.495623 -0.330913 3.724735 -1.134953 0.542881 -1.095786 -2.023821 5.413012 3.533683 7.472479 -4.139214 -9.735117 0.000000 0.000000 0.000000 -22.289509 5.946158 -6.505126 -53.728503 2.432944 -7.244095 1.045392 -21.559311 0.471650 0.000000 0.000000 0.000000 23.178351 -10.975897 -7.764630 57.455387 -3.937897 -7.448284 -5.686444 24.337414 -0.068013 0.000000 0.000000 0.000000 
0.003377 0.958073 -0.000943 -3.261433 -4.805182 -0.100998 -0.779207 -0.033920 -0.376219 -0.302122 -0.190608 9.183634 1.146945 4.931312 7.977661 0.000000 0.000000 0.000000 4.195589 0.444638 -4.156502 -1.656071 1.309474 17.336371 5.037191 5.493145 9.795173 0.000000 0.000000 0.000000 4.482306 -0.353152 4.024987 -1.105984 0.529369 -1.032173 -2.234150 5.551413 3.465454 7.506420 -4.101199 -9.989781 0.000000 0.000000 0.000000 -22.089849 5.381957 -6.199737 -53.667499 2.213029 -7.126840 0.684884 -21.687184 0.532473 0.000000 0.000000 0.000000 23.771907 -10.643095 -7.628610 57.059065 -3.073301 -7.012008 -5.348353 25.029707 0.006802 0.000000 0.000000 0.000000 
0.003951 0.958243 -0.000721 -3.391364 -4.549605 -0.184727 -0.830833 -0.032110 -0.361967 -0.260443 -0.206463 9.348268 1.492284 5.535233 7.835362 0.000000 0.000000 0.000000 4.252429 0.480328 -4.388033 -1.811401 1.368642 17.703124 4.736132 5.184761 9.342468 0.000000 0.000000 0.000000 4.538294 -0.383038 4.383310 -1.141407 0.546971 -1.168311 -2.230364 5.582911 3.772320 7.727091 -4.226348 -10.128004 0.000000 0.000000 0.000000 -22.342580 4.992046 -6.074773 -53.271494 1.909956 -6.944551 0.163327 -21.907893 0.633963 0.000000 0.000000 0.000000 24.008993 -10.006644 -7.231661 56.803643 -2.340485 -6.694619 -4.867777 25.564051 0.119551 0.000000 0.000000 0.000000 
0.004857 0.958496 -0.000144 -3.433664 -4.259560 -0.131992 -0.939737 -0.067433 -0.718472 -0.209031 -0.230296 9.753780 1.662799 5.940036 8.127270 0.000000 0.000000 0.000000 4.317261 0.521239 -4.664177 -1.985806 1.423298 17.961404 3.937748 4.077873 8.452191 0.000000 0.000000 0.000000 4.591038 -0.418500 4.784384 -1.207774 0.579360 -1.244925 -2.143048 5.757538 3.682644 7.587049 -4.006473 -10.649910 0.000000 0.000000 0.000000 -22.289418 4.612570 -5.940468 -53.125599 1.595292 -6.759228 -0.140411 -22.087204 0.680215 0.000000 0.000000 0.000000 24.180284 -9.743691 -7.014824 56.697950 -1.576712 -6.341869 -4.676763 25.870890 0.180623 0.000000 0.000000 0.000000 
0.006077 0.958634 0.000886 -3.484887 -3.572180 0.096633 -0.973174 -0.133505 -1.391174 -0.275685 -0.241528 10.351581 1.765390 6.240856 8.366570 0.000000 0.000000 0.000000 4.520122 0.562812 -4.918110 -2.055611 1.446073 18.357369 2.695183 2.333327 6.981547 0.000000 0.000000 0.000000 4.459655 -0.450442 5.206064 -0.896030 0.441165 -2.083392 -2.383986 6.084690 4.411224 7.880547 -4.094531 -11.071795 0.000000 0.000000 0.000000 -22.334815 4.003066 -5.786504 -52.903275 1.169506 -6.565118 -0.542854 -22.612588 0.748809 0.000000 0.000000 0.000000 24.668650 -9.639010 -6.805136 56.308020 -1.200332 -6.248750 -4.042843 26.339284 0.379692 0.000000 0.000000 0.000000 
0.007883 0.958638 0.002748 -3.519139 -3.246492 0.553816 -1.006939 -0.219832 -2.266307 -0.288877 -0.258071 10.949361 1.652393 6.186808 8.824258 0.000000 0.000000 0.000000 4.493825 0.616198 -5.315658 -2.226456 1.503517 18.670953 2.028179 1.639647 5.647243 0.000000 0.000000 0.000000 4.666583 -0.461477 5.114117 -1.150078 0.558162 -1.726660 -2.331920 6.421254 4.296710 7.905148 -3.963326 -11.603976 0.000000 0.000000 0.000000 -22.090130 3.861032 -5.794960 -53.075931 0.694856 -6.350818 -0.755415 -23.068457 0.775627 0.000000 0.000000 0.000000 24.822978 -9.568871 -6.644783 56.155126 -0.820528 -6.072810 -3.901348 26.558558 0.445385 0.000000 0.000000 0.000000 
0.010328 0.958224 0.006041 -3.581496 -2.452841 0.967523 -1.041267 -0.286994 -2.964217 -0.423912 -0.266198 11.844183 1.630189 6.030250 8.135577 0.000000 0.000000 0.000000 4.474627 0.643405 -5.503566 -2.238627 1.477675 18.725672 1.460939 0.565289 5.391474 0.000000 0.000000 0.000000 4.527992 -0.451469 4.977359 -0.937094 0.464893 -1.797712 -2.365038 6.670597 4.629325 7.876767 -3.826881 -11.968469 0.000000 0.000000 0.000000 -22.290017 3.677488 -5.913845 -52.804541 0.484746 -6.202821 -1.068808 -23.986028 0.835685 0.000000 0.000000 0.000000 25.164265 -9.701560 -6.573956 55.784331 -0.714553 -6.060690 -3.661101 26.600885 0.547123 0.000000 0.000000 0.000000 
0.013653 0.957829 0.011199 -3.526102 -1.915626 1.258002 -1.124831 -0.338506 -3.485920 -0.392982 -0.296180 12.283462 1.032585 5.270790 8.987319 0.000000 0.000000 0.000000 4.202062 0.627579 -5.427479 -2.294208 1.456781 18.534591 1.484820 0.720255 5.280422 0.000000 0.000000 0.000000 4.518881 -0.457791 4.991769 -1.054683 0.520782 -1.714478 -2.468357 6.810820 4.681931 8.219755 -3.957933 -12.288507 0.000000 0.000000 0.000000 -22.586629 3.693907 -6.117048 -52.537830 0.423701 -6.102554 -0.971760 -24.713271 0.809483 0.000000 0.000000 0.000000 25.376862 -9.768501 -6.509462 55.714414 -1.229777 -6.320778 -3.529250 26.642794 0.607255 0.000000 0.000000 0.000000 
